<svg width="179" height="213" viewBox="0 0 179 213" fill="none" xmlns="http://www.w3.org/2000/svg">
<path d="M163.544 98.6473V112.031C163.544 114.535 163.435 117.004 163.221 119.438H15.7789C15.565 117.004 15.4562 114.535 15.4562 112.031V98.6473H39.7534H63.3796H163.544Z" fill="#FB7B76"/>
<path d="M15.7789 119.439H163.221C160.111 154.94 134.883 182.615 104.227 182.615H74.7734C44.1169 182.615 18.8894 154.94 15.7789 119.439Z" fill="#FBB0AD"/>
<path d="M85.5 47.5L85.5 95.5824L105.962 95.5824L107.108 50.8075C107.127 48.8064 106.714 46.8585 105.962 45.0804C104.205 40.9219 100.607 37.7153 96.4274 37.0769C90.4605 36.1597 85.5694 40.8257 85.5 47.5Z" fill="#DBB67E"/>
<path d="M41.8503 114.45H44.9248C47.2399 114.45 49.1169 116.683 49.1169 119.438C49.1169 122.193 47.2402 124.427 44.9248 124.427H41.8503C39.5352 124.427 37.6581 122.194 37.6581 119.438C37.6581 116.684 39.5352 114.45 41.8503 114.45Z" fill="black"/>
<path d="M4.19217 114.45H11.3001C11.2787 113.643 11.2644 112.836 11.2644 112.031V98.6473C11.2644 95.8924 13.1411 93.6588 15.4566 93.6588H74.7734V46.3063C74.7734 41.5 75.2734 39 78.5 36C84 29.5 88.5 29.5 95.5 29.5C101 29.5 109 30.5 113.5 37C115.621 39 115.621 44 115.621 46.3063V93.6597L163.544 93.6593C165.859 93.6593 167.736 95.8924 167.736 98.6477V112.031C167.736 112.837 167.722 113.644 167.701 114.45H174.808C177.123 114.45 179 116.684 179 119.438C179 122.193 177.123 124.427 174.808 124.427H166.881C164.556 141.174 157.541 156.524 146.869 168.035C135.171 180.654 120.028 187.604 104.227 187.604H74.7734C58.9728 187.604 43.8288 180.654 32.1308 168.035C21.4597 156.524 14.4445 141.173 12.1192 124.427H4.19217C1.87706 124.427 0 122.194 0 119.438C0 116.684 1.87671 114.45 4.19217 114.45ZM102 40.5C99.5 39 98 38 95.5 38C93 38 89.5 39 88.5 40.5C87.5 42 86.5 44 86.5 46.3063V93.6597L104.227 93.6588V46.3063C104.227 45 103.727 43 102 40.5ZM74.7734 177.627H104.227C130.975 177.627 153.483 155.12 158.373 124.427H61.4131C59.098 124.427 57.2209 122.194 57.2209 119.438C57.2209 116.684 59.0976 114.45 61.4131 114.45H159.31C159.335 113.644 159.352 112.837 159.352 112.031V103.636H139.247H115.621H19.6481V112.031C19.6481 112.837 19.6648 113.644 19.6897 114.45H24.2444C26.5595 114.45 28.4365 116.683 28.4365 119.438C28.4365 122.193 26.5598 124.427 24.2444 124.427H20.6308C25.5218 155.118 48.0266 177.627 74.7734 177.627Z" fill="black"/>
</svg>
