<svg width="179" height="213" viewBox="0 0 179 213" fill="none" xmlns="http://www.w3.org/2000/svg">
<path d="M163.544 98.6473V112.031C163.544 114.535 163.435 117.004 163.221 119.438H15.7789C15.565 117.004 15.4562 114.535 15.4562 112.031V98.6473H39.7534H63.3796H163.544Z" fill="#FB7B76"/>
<path d="M15.7789 119.439H163.221C160.111 154.94 134.883 182.615 104.227 182.615H74.7734C44.1169 182.615 18.8894 154.94 15.7789 119.439Z" fill="#FBB0AD"/>
<path d="M36.6132 37.1369L63.3793 98.6473H39.753L17.9965 48.5948C17.2001 46.7589 16.8229 44.8036 16.8229 42.8733C16.8229 38.3587 18.8894 34.0043 22.4904 31.7894C27.6296 28.6219 33.9513 31.016 36.6132 37.1369Z" fill="#DBB67E"/>
<path d="M137.15 114.45H134.075C131.76 114.45 129.883 116.683 129.883 119.438C129.883 122.193 131.76 124.427 134.075 124.427H137.15C139.465 124.427 141.342 122.194 141.342 119.438C141.342 116.684 139.465 114.45 137.15 114.45Z" fill="black"/>
<path d="M174.808 114.45H167.7C167.721 113.643 167.736 112.836 167.736 112.031V98.6473C167.736 95.8924 165.859 93.6588 163.543 93.6588H65.9293L40.3362 34.8442C38.5343 30.7011 35.4857 27.6405 31.7519 26.2269C28.0173 24.8128 24.0426 25.2147 20.5651 27.3588C15.6712 30.3687 12.6307 36.314 12.6307 42.8733C12.6307 45.6394 13.1985 48.4096 14.2732 50.8866L32.8654 93.6592H15.4559C13.1408 93.6592 11.2637 95.8924 11.2637 98.6477V112.031C11.2637 112.837 11.278 113.644 11.2994 114.45H4.19182C1.8767 114.45 0 116.684 0 119.438C0 122.193 1.8767 124.427 4.19217 124.427H12.1192C14.4445 141.174 21.4594 156.524 32.1308 168.035C43.8288 180.654 58.9725 187.603 74.7734 187.603H104.227C120.027 187.603 135.171 180.654 146.869 168.035C157.54 156.524 164.556 141.173 166.881 124.427H174.808C177.123 124.427 179 122.194 179 119.438C179 116.684 177.123 114.45 174.808 114.45ZM21.0147 42.8733C21.0147 40.0598 22.3177 37.5109 24.4181 36.2191C25.9089 35.301 27.6094 35.1283 29.2095 35.7337C30.8097 36.3398 32.1172 37.6523 32.8902 39.4308L56.4881 93.6597H42.3045L21.7209 46.3063C21.2524 45.2259 21.0147 44.0706 21.0147 42.8733ZM104.227 177.627H74.7734C48.0248 177.627 25.5169 155.12 20.6266 124.427H117.587C119.902 124.427 121.779 122.194 121.779 119.438C121.779 116.684 119.902 114.45 117.587 114.45H19.6896C19.6648 113.644 19.648 112.837 19.648 112.031V103.636H39.753H63.3793H159.352V112.031C159.352 112.837 159.335 113.644 159.31 114.45H154.756C152.441 114.45 150.563 116.683 150.563 119.438C150.563 122.193 152.44 124.427 154.756 124.427H158.369C153.478 155.118 130.973 177.627 104.227 177.627Z" fill="black"/>
</svg>
