<svg width="179" height="213" viewBox="0 0 179 213" fill="none" xmlns="http://www.w3.org/2000/svg">
<path d="M163.544 98.6473V112.031C163.544 114.535 163.435 117.004 163.221 119.438H15.7789C15.565 117.004 15.4562 114.535 15.4562 112.031V98.6473H39.7534H63.3796H163.544Z" fill="#FB7B76"/>
<path d="M15.7789 119.439H163.221C160.111 154.94 134.883 182.615 104.227 182.615H74.7734C44.1169 182.615 18.8894 154.94 15.7789 119.439Z" fill="#FBB0AD"/>
<path d="M142.387 37.1369L115.621 98.6473H139.247L161.004 48.5948C161.8 46.7589 162.177 44.8036 162.177 42.8733C162.177 38.3587 160.111 34.0043 156.51 31.7894C151.37 28.6219 145.049 31.016 142.387 37.1369Z" fill="#DBB67E"/>
<path d="M41.8503 114.45H44.9248C47.2399 114.45 49.117 116.683 49.117 119.438C49.117 122.193 47.2403 124.427 44.9248 124.427H41.8503C39.5352 124.427 37.6582 122.194 37.6582 119.438C37.6582 116.684 39.5352 114.45 41.8503 114.45Z" fill="black"/>
<path d="M4.19217 114.45H11.3001C11.2787 113.643 11.2644 112.836 11.2644 112.031V98.6473C11.2644 95.8924 13.1411 93.6588 15.4566 93.6588H113.071L138.664 34.8442C140.466 30.7011 143.514 27.6405 147.248 26.2269C150.983 24.8128 154.957 25.2147 158.435 27.3588C163.329 30.3687 166.369 36.314 166.369 42.8733C166.369 45.6394 165.802 48.4096 164.727 50.8866L146.135 93.6592H163.544C165.859 93.6592 167.736 95.8924 167.736 98.6477V112.031C167.736 112.837 167.722 113.644 167.701 114.45H174.808C177.123 114.45 179 116.684 179 119.438C179 122.193 177.123 124.427 174.808 124.427H166.881C164.556 141.174 157.541 156.524 146.869 168.035C135.171 180.654 120.028 187.603 104.227 187.603H74.7734C58.9728 187.603 43.8288 180.654 32.1308 168.035C21.4597 156.524 14.4445 141.173 12.1192 124.427H4.19217C1.87704 124.427 0 122.194 0 119.438C0 116.684 1.87671 114.45 4.19217 114.45ZM157.985 42.8733C157.985 40.0598 156.682 37.5109 154.582 36.2191C153.091 35.301 151.391 35.1283 149.79 35.7337C148.19 36.3398 146.883 37.6523 146.11 39.4308L122.512 93.6597H136.696L157.279 46.3063C157.748 45.2259 157.985 44.0706 157.985 42.8733ZM74.7734 177.627H104.227C130.975 177.627 153.483 155.12 158.373 124.427H61.4131C59.098 124.427 57.2209 122.194 57.2209 119.438C57.2209 116.684 59.0976 114.45 61.4131 114.45H159.31C159.335 113.644 159.352 112.837 159.352 112.031V103.636H139.247H115.621H19.6481V112.031C19.6481 112.837 19.6648 113.644 19.6897 114.45H24.2444C26.5595 114.45 28.4365 116.683 28.4365 119.438C28.4365 122.193 26.5598 124.427 24.2444 124.427H20.6308C25.5218 155.118 48.0266 177.627 74.7734 177.627Z" fill="black"/>
</svg>
