<svg width="179" height="213" viewBox="0 0 179 213" fill="none" xmlns="http://www.w3.org/2000/svg">
<path d="M163.544 98.6473V112.031C163.544 114.535 163.435 117.004 163.221 119.438H15.7789C15.565 117.004 15.4562 114.535 15.4562 112.031V98.6473H39.7534H63.3796H163.544Z" fill="#FB7B76"/>
<path d="M15.7789 119.439H163.221C160.111 154.94 134.883 182.615 104.227 182.615H74.7734C44.1169 182.615 18.8894 154.94 15.7789 119.439Z" fill="#FBB0AD"/>
<path d="M93.5 47.5L93.5 95.5824L73.0376 95.5824L71.8915 50.8075C71.8726 48.8064 72.2862 46.8585 73.0376 45.0804C74.7949 40.9219 78.3935 37.7153 82.5726 37.0769C88.5395 36.1597 93.4306 40.8257 93.5 47.5Z" fill="#DBB67E"/>
<path d="M137.15 114.45H134.075C131.76 114.45 129.883 116.683 129.883 119.438C129.883 122.193 131.76 124.427 134.075 124.427H137.15C139.465 124.427 141.342 122.194 141.342 119.438C141.342 116.684 139.465 114.45 137.15 114.45Z" fill="black"/>
<path d="M174.808 114.45H167.7C167.721 113.643 167.736 112.836 167.736 112.031V98.6473C167.736 95.8924 165.859 93.6588 163.543 93.6588H104.227V46.3063C104.227 41.5 103.727 39 100.5 36C95 29.5 90.5 29.5 83.5 29.5C78 29.5 70 30.5 65.5 37C63.3793 39 63.3793 44 63.3793 46.3063V93.6597L15.4559 93.6593C13.1408 93.6593 11.2637 95.8924 11.2637 98.6477V112.031C11.2637 112.837 11.278 113.644 11.2994 114.45H4.19182C1.8767 114.45 0 116.684 0 119.438C0 122.193 1.8767 124.427 4.19217 124.427H12.1192C14.4445 141.174 21.4594 156.524 32.1308 168.035C43.8288 180.654 58.9725 187.604 74.7734 187.604H104.227C120.027 187.604 135.171 180.654 146.869 168.035C157.54 156.524 164.556 141.173 166.881 124.427H174.808C177.123 124.427 179 122.194 179 119.438C179 116.684 177.123 114.45 174.808 114.45ZM77 40.5C79.5 39 81 38 83.5 38C86 38 89.5 39 90.5 40.5C91.5 42 92.5 44 92.5 46.3063V93.6597L74.7734 93.6588V46.3063C74.7734 45 75.2734 43 77 40.5ZM104.227 177.627H74.7734C48.0248 177.627 25.5169 155.12 20.6266 124.427H117.587C119.902 124.427 121.779 122.194 121.779 119.438C121.779 116.684 119.902 114.45 117.587 114.45H19.6896C19.6648 113.644 19.648 112.837 19.648 112.031V103.636H39.753H63.3793H159.352V112.031C159.352 112.837 159.335 113.644 159.31 114.45H154.756C152.441 114.45 150.563 116.683 150.563 119.438C150.563 122.193 152.44 124.427 154.756 124.427H158.369C153.478 155.118 130.973 177.627 104.227 177.627Z" fill="black"/>
</svg>
